<svg xmlns="http://www.w3.org/2000/svg" viewBox="0 0 200 50" fill="currentColor">
  <!-- @ symbol with integrated circle -->
  <g>
    <!-- Outer circle of @ -->
    <path d="M25 5C12.85 5 3 14.85 3 27s9.85 22 22 22c6.08 0 11.6-2.47 15.59-6.46l-3.54-3.54C33.93 42.12 29.68 44 25 44c-9.39 0-17-7.61-17-17s7.61-17 17-17 17 7.61 17 17v2c0 2.21-1.79 4-4 4s-4-1.79-4-4v-2c0-4.97-4.03-9-9-9s-9 4.03-9 9 4.03 9 9 9c2.99 0 5.64-1.46 7.28-3.71C33.78 34.3 36.22 35 38 35c4.97 0 9-4.03 9-9v-2c0-12.15-9.85-22-22-22zm0 28c-2.76 0-5-2.24-5-5s2.24-5 5-5 5 2.24 5 5-2.24 5-5 5z"/>
    <!-- Blue dot accent on i -->
  </g>
  <!-- "navi" text -->
  <text x="52" y="35" font-family="system-ui, -apple-system, sans-serif" font-size="28" font-weight="500" letter-spacing="-0.5">navi</text>
  <!-- Blue dot on the i -->
  <circle cx="182" cy="12" r="3" fill="#0EA5E9"/>
</svg>
